:SAMPLES-PER-SECOND 30
:FULLY-SPECIFIED
:DEGREES
1186
root  -23.0051 38.4967 -28.1399 1.51038 62.1109 7.07608
RightUpLeg  -16.7888 4.14796 -24.0765
RightLeg  25.2044 1.79413 0.70383
RightFoot  -10.2836 -0.0669727 -0.288258
RightToes  -8.3237e-009 0 -3.6325e-017
Spine  10.8534 -1.00885 -3.85201
Spine1  7.33434 -4.56921 12.1955
HEad  -11.0593 -2.6288 14.4866
LeftShoulder1  -0.264498 4.25585 -29.0037
LeftArm  -9.21346 2.35378 -43.5489
LeftForeArm  37.5944 -41.3744 -7.41385
LeftHand  -0.0204709 5.57421 2.89293
RightShoulder  -0.597738 -5.34841 25.671
RightArm  8.63052 -19.6684 26.6308
RightForeArm  4.66729 11.4442 3.38709
RightHand  -0.348133 3.95794 -4.60035
LeftUpLeg  4.82644 4.40325 6.3073
LeftLeg  20.5359 -3.20784 -0.993634
LeftFoot  -17.1421 -0.187134 -5.71724
LeftToes  -1.18267e-011 3.61711e-011 9.57411e-011
1187
root  -22.9272 38.2954 -27.3155 2.60791 61.8139 8.06146
RightUpLeg  -16.1525 6.93342 -26.8598
RightLeg  23.2211 0.564463 0.0510413
RightFoot  -9.90973 -0.055674 -0.928526
RightToes  -8.3237e-009 0 -3.6325e-017
Spine  10.3523 -1.19617 -4.33023
Spine1  7.46024 -4.85733 12.5355
HEad  -10.2736 -2.59843 14.6291
LeftShoulder1  -0.208887 4.10084 -28.8317
LeftArm  -4.06523 0.738212 -46.0262
LeftForeArm  38.6259 -42.3797 -7.6616
LeftHand  -0.039711 4.2969 1.742
RightShoulder  -0.640413 -5.5048 25.2932
RightArm  8.88693 -22.4642 25.2306
RightForeArm  6.55677 12.8941 3.08189
RightHand  -0.292277 2.59493 -4.51083
LeftUpLeg  5.34141 3.75331 6.83475
LeftLeg  20.604 -2.85892 -0.853925
LeftFoot  -17.5003 -0.246952 -6.5247
LeftToes  -1.18267e-011 3.61711e-011 9.57411e-011
1188
root  -22.8734 38.0619 -26.3281 3.72375 61.1475 8.94983
RightUpLeg  -15.555 8.33347 -28.543
RightLeg  21.3725 -1.35655 -0.793774
RightFoot  -10.0241 -0.0528969 -1.31254
RightToes  -8.3237e-009 0 -3.6325e-017
Spine  9.59259 -1.32116 -4.90977
Spine1  7.67294 -5.05166 12.6786
HEad  -9.34209 -2.21297 14.4239
LeftShoulder1  -0.19908 4.06675 -29.2391
LeftArm  -0.191985 -0.306509 -47.6385
LeftForeArm  39.0638 -43.5116 -7.99298
LeftHand  -0.0313717 4.61412 1.17477
RightShoulder  -0.646368 -5.5591 24.7364
RightArm  7.40262 -24.4848 25.1439
RightForeArm  6.17745 12.7943 2.55021
RightHand  -0.357492 5.54211 -4.05716
LeftUpLeg  6.07513 3.50669 7.70024
LeftLeg  20.3653 -2.69533 -0.773588
LeftFoot  -17.8171 -0.33182 -7.74699
LeftToes  -1.18267e-011 3.61711e-011 9.57411e-011
1189
root  -22.8704 37.8159 -25.2353 4.85461 60.2828 9.68787
RightUpLeg  -14.8526 7.56555 -28.9357
RightLeg  19.6476 -3.15314 -1.46836
RightFoot  -10.5606 -0.0626693 -0.0452596
RightToes  -8.3237e-009 0 -3.6325e-017
Spine  9.14767 -1.51224 -5.39177
Spine1  7.53594 -5.23453 12.8367
HEad  -8.43502 -2.10961 13.5013
LeftShoulder1  -0.166439 3.96782 -29.6774
LeftArm  1.25916 -0.366691 -48.8436
LeftForeArm  39.0267 -44.1542 -8.20517
LeftHand  -0.0278799 4.04464 0.546552
RightShoulder  -0.682635 -5.68795 24.5584
RightArm  5.14707 -25.3522 25.8305
RightForeArm  6.23511 12.0871 1.80707
RightHand  -0.217848 4.25497 -2.91212
LeftUpLeg  6.86673 3.26773 8.75746
LeftLeg  19.8114 -2.45975 -0.65015
LeftFoot  -17.6953 -0.391163 -8.93751
LeftToes  -1.18267e-011 3.61711e-011 9.57411e-011
1190
root  -22.9091 37.55 -23.9829 5.31836 59.1282 9.35941
RightUpLeg  -14.9617 6.30613 -28.0931
RightLeg  19.2016 -1.97902 -0.966179
RightFoot  -9.48726 -0.21559 6.86814
RightToes  -8.3237e-009 0 -3.6325e-017
Spine  8.59808 -1.83458 -5.5181
Spine1  7.301 -5.54076 13.0175
HEad  -8.55156 -0.372902 13.0054
LeftShoulder1  -0.27179 4.24707 -30.4202
LeftArm  1.48098 0.188289 -49.4584
LeftForeArm  38.8883 -44.0063 -8.16514
LeftHand  -0.0229308 3.84789 0.150282
RightShoulder  -0.678828 -5.69736 24.2404
RightArm  2.61179 -25.2038 27.3322
RightForeArm  3.57491 11.097 1.11293
RightHand  -0.255809 5.13283 -3.12575
LeftUpLeg  7.38869 3.00148 10.5537
LeftLeg  19.5108 -2.17612 -0.521515
LeftFoot  -17.3153 -0.467017 -10.9129
LeftToes  -1.18267e-011 3.61711e-011 9.57411e-011
1191
root  -23.0521 37.2631 -22.666 5.62976 58.22 9.49261
RightUpLeg  -16.3579 3.08327 -27.0372
RightLeg  21.5043 3.26689 1.22672
RightFoot  -5.84587 -0.685983 13.8645
RightToes  -8.3237e-009 0 -3.6325e-017
Spine  9.87287 -2.27404 -5.23139
Spine1  5.95958 -5.64621 11.9352
HEad  -9.00433 1.84024 12.1084
LeftShoulder1  -0.315275 4.35095 -31.126
LeftArm  1.35812 1.12888 -49.4433
LeftForeArm  38.5088 -43.4726 -8.01564
LeftHand  -0.0272731 4.2468 0.429115
RightShoulder  -0.717894 -5.77604 24.9233
RightArm  1.30065 -23.417 28.6663
RightForeArm  2.72037 10.0796 0.812107
RightHand  -0.240164 4.71565 -3.05041
LeftUpLeg  7.95992 1.26592 11.8534
LeftLeg  19.9288 -0.964983 -0.0550472
LeftFoot  -16.039 -0.427754 -12.8223
LeftToes  -1.18267e-011 3.61711e-011 9.57411e-011
1192
root  -23.145 37.1637 -21.3249 3.229 55.7429 6.58185
RightUpLeg  -18.9758 1.21991 -23.3962
RightLeg  25.7518 6.60351 3.23724
RightFoot  -5.13782 -0.760353 13.2887
RightToes  -8.3237e-009 0 -3.6325e-017
Spine  10.1083 -2.18513 -2.77162
Spine1  6.47937 -5.11401 10.7725
HEad  -10.0336 4.47129 10.2414
LeftShoulder1  -0.213171 4.07095 -31.3708
LeftArm  1.07512 2.15461 -49.6029
LeftForeArm  37.6544 -41.4083 -7.42779
LeftHand  -0.0384452 4.2257 1.70913
RightShoulder  -0.721785 -5.75585 25.3873
RightArm  1.5322 -20.1608 30.4911
RightForeArm  3.45006 8.85274 1.15559
RightHand  -0.235474 4.59414 -3.02325
LeftUpLeg  9.70272 2.39459 15.3113
LeftLeg  19.3657 -0.862305 -0.00632679
LeftFoot  -12.9543 -0.119602 -13.8426
LeftToes  -1.18267e-011 3.61711e-011 9.57411e-011
1193
root  -23.2274 37.2383 -20.0323 2.23059 54.8015 4.80203
RightUpLeg  -20.2581 -0.846376 -20.2662
RightLeg  28.8588 8.42171 4.76143
RightFoot  -6.68489 -0.506483 11.2878
RightToes  -8.3237e-009 0 -3.6325e-017
Spine  9.92123 -2.63697 -1.48331
Spine1  6.76346 -5.43351 11.1465
HEad  -10.6454 7.19774 9.38868
LeftShoulder1  -0.123682 3.83975 -30.7309
LeftArm  2.19962 3.0736 -49.9192
LeftForeArm  35.8606 -37.8334 -6.50169
LeftHand  -0.0395731 4.22748 1.73132
RightShoulder  -0.721443 -5.70389 26.1326
RightArm  3.82377 -15.7354 32.4874
RightForeArm  6.21253 7.24042 2.2566
RightHand  -0.237591 3.81122 -3.26211
LeftUpLeg  9.99567 1.86093 17.6216
LeftLeg  19.2039 0.317401 0.448824
LeftFoot  -7.1731 0.45691 -11.7954
LeftToes  -1.18267e-011 3.61711e-011 9.57411e-011
